<svg width="16" height="16" viewBox="0 0 16 16" fill="none" xmlns="http://www.w3.org/2000/svg">
<path d="M6.00065 14.6673H10.0007C13.334 14.6673 14.6673 13.334 14.6673 10.0007V6.00065C14.6673 2.66732 13.334 1.33398 10.0007 1.33398H6.00065C2.66732 1.33398 1.33398 2.66732 1.33398 6.00065V10.0007C1.33398 13.334 2.66732 14.6673 6.00065 14.6673Z" stroke="white" stroke-opacity="0.72" stroke-width="1.5" stroke-linecap="round" stroke-linejoin="round"/>
<path d="M7.99935 10.3327C9.28801 10.3327 10.3327 9.28801 10.3327 7.99935C10.3327 6.71068 9.28801 5.66602 7.99935 5.66602C6.71068 5.66602 5.66602 6.71068 5.66602 7.99935C5.66602 9.28801 6.71068 10.3327 7.99935 10.3327Z" stroke="white" stroke-opacity="0.72" stroke-width="1.5" stroke-linecap="round" stroke-linejoin="round"/>
<path d="M11.7581 4.66732H11.7658" stroke="white" stroke-opacity="0.72" stroke-width="2" stroke-linecap="round" stroke-linejoin="round"/>
</svg>
