<svg width="32" height="32" viewBox="0 0 32 32" fill="none" xmlns="http://www.w3.org/2000/svg">
<path d="M23.1448 21.09C23.1448 21.1577 23.1717 21.2225 23.2195 21.2703C23.2673 21.3182 23.3322 21.345 23.3998 21.345H28.7698C29.3546 21.345 29.9155 21.5773 30.329 21.9909C30.7425 22.4044 30.9748 22.9652 30.9748 23.55C30.9748 24.1348 30.7425 24.6957 30.329 25.1092C29.9155 25.5227 29.3546 25.755 28.7698 25.755H23.1648C23.0985 25.7576 23.0356 25.7854 22.9891 25.8328C22.9426 25.8802 22.916 25.9436 22.9148 26.01C22.9141 26.0433 22.9201 26.0763 22.9324 26.1072C22.9446 26.1381 22.963 26.1663 22.9862 26.19C23.0095 26.2138 23.0373 26.2326 23.068 26.2455C23.0986 26.2584 23.1316 26.265 23.1648 26.265H28.3898C28.9558 26.292 29.4897 26.5358 29.8807 26.9459C30.2717 27.356 30.4898 27.9009 30.4898 28.4675C30.4898 29.0342 30.2717 29.579 29.8807 29.9891C29.4897 30.3992 28.9558 30.643 28.3898 30.67H14.4548C14.0409 30.6707 13.6309 30.5898 13.2482 30.4319C12.8656 30.2741 12.5178 30.0424 12.2248 29.75L11.7598 29.28C11.4207 28.9404 11.0177 28.6715 10.5739 28.4887C10.1302 28.3059 9.65469 28.2129 9.1748 28.215H6.6748V14.9C7.28845 14.8865 7.88956 14.7237 8.42619 14.4258C8.96282 14.1278 9.41883 13.7037 9.7548 13.19L12.3848 9.19002C13.2178 7.89915 13.732 6.42871 13.8848 4.90002L14.1048 3.00002C14.1602 2.50147 14.4105 2.04506 14.8011 1.73033C15.1917 1.41561 15.6909 1.26811 16.1898 1.32002C16.6985 1.33455 17.1974 1.46292 17.65 1.69568C18.1025 1.92843 18.4971 2.25967 18.8048 2.66502C19.8048 4.06502 19.8448 6.53502 18.9548 10.235C18.9301 10.3392 18.9291 10.4475 18.9518 10.5521C18.9746 10.6567 19.0205 10.7548 19.0863 10.8393C19.152 10.9237 19.2359 10.9924 19.3317 11.0401C19.4275 11.0878 19.5328 11.1134 19.6398 11.115H29.3048C29.9267 11.115 30.5232 11.3621 30.963 11.8019C31.4027 12.2416 31.6498 12.8381 31.6498 13.46C31.6498 14.082 31.4027 14.6784 30.963 15.1182C30.5232 15.558 29.9267 15.805 29.3048 15.805H23.1748C23.1171 15.8166 23.0651 15.8479 23.0278 15.8934C22.9904 15.939 22.9701 15.9961 22.9701 16.055C22.9701 16.1139 22.9904 16.171 23.0278 16.2166C23.0651 16.2622 23.1171 16.2934 23.1748 16.305H29.3948C30.5998 16.305 31.9998 17.305 31.9998 18.555C31.9998 19.805 30.5998 20.805 29.3948 20.805H23.3948C23.3591 20.8055 23.3238 20.8134 23.2913 20.8284C23.2589 20.8434 23.2299 20.865 23.2063 20.8918C23.1828 20.9187 23.1651 20.9502 23.1545 20.9844C23.1439 21.0185 23.1406 21.0545 23.1448 21.09Z" fill="url(#paint0_linear_85_66662)"/>
<path d="M0 13.5V29.075H6.165V13.5H0ZM3.085 19.06C2.77286 19.06 2.46776 18.9672 2.20844 18.7935C1.94912 18.6198 1.74726 18.3729 1.62851 18.0842C1.50976 17.7955 1.47945 17.4781 1.54145 17.1722C1.60345 16.8663 1.75495 16.5857 1.97672 16.366C2.19849 16.1463 2.48053 15.9975 2.78703 15.9385C3.09353 15.8794 3.41067 15.9127 3.69819 16.0342C3.98571 16.1558 4.23064 16.36 4.40189 16.6209C4.57313 16.8819 4.66297 17.1879 4.66 17.5C4.65605 17.9151 4.48837 18.3119 4.19342 18.604C3.89848 18.8961 3.50013 19.06 3.085 19.06Z" fill="url(#paint1_linear_85_66662)"/>
<path d="M4.14977 17.4999C4.14976 17.7118 4.08688 17.9189 3.96909 18.0949C3.85129 18.271 3.68388 18.4081 3.48807 18.489C3.29227 18.5698 3.07687 18.5907 2.86917 18.549C2.66148 18.5073 2.47083 18.4049 2.32139 18.2548C2.17195 18.1046 2.07044 17.9135 2.02972 17.7056C1.989 17.4977 2.0109 17.2824 2.09266 17.087C2.17441 16.8916 2.31233 16.7248 2.48895 16.6078C2.66557 16.4909 2.87293 16.429 3.08477 16.4299C3.36768 16.4313 3.63856 16.5446 3.83814 16.7451C4.03772 16.9456 4.14977 17.217 4.14977 17.4999Z" fill="url(#paint2_linear_85_66662)"/>
<defs>
<linearGradient id="paint0_linear_85_66662" x1="5.3583" y1="6.31824" x2="24.7216" y2="36.7104" gradientUnits="userSpaceOnUse">
<stop stop-color="#A58038"/>
<stop offset="0.5" stop-color="#FFCB7B"/>
<stop offset="1" stop-color="#A58038"/>
</linearGradient>
<linearGradient id="paint1_linear_85_66662" x1="-0.320483" y1="16.1569" x2="10.429" y2="23.8994" gradientUnits="userSpaceOnUse">
<stop stop-color="#A58038"/>
<stop offset="0.5" stop-color="#FFCB7B"/>
<stop offset="1" stop-color="#A58038"/>
</linearGradient>
<linearGradient id="paint2_linear_85_66662" x1="1.89852" y1="16.795" x2="3.21305" y2="19.187" gradientUnits="userSpaceOnUse">
<stop stop-color="#A58038"/>
<stop offset="0.5" stop-color="#FFCB7B"/>
<stop offset="1" stop-color="#A58038"/>
</linearGradient>
</defs>
</svg>
