<svg width="32" height="32" viewBox="0 0 32 32" fill="none" xmlns="http://www.w3.org/2000/svg">
<path d="M16.0094 31.7721C15.3216 31.787 14.6449 31.5967 14.0656 31.2254C13.4864 30.8541 13.0309 30.3187 12.7573 29.6874C12.4837 29.0562 12.4043 28.3577 12.5293 27.6811C12.6544 27.0046 12.9782 26.3806 13.4593 25.8888C13.9405 25.3971 14.5573 25.0598 15.231 24.9201C15.9047 24.7803 16.6047 24.8445 17.2418 25.1043C17.8788 25.3641 18.4241 25.8079 18.8079 26.3789C19.1917 26.9499 19.3967 27.6223 19.3967 28.3103C19.4054 29.2182 19.0537 30.0925 18.4187 30.7415C17.7838 31.3904 16.9173 31.7611 16.0094 31.7721ZM16.0094 25.5986C15.4699 25.5836 14.9381 25.7298 14.4822 26.0187C14.0262 26.3075 13.6668 26.7258 13.4499 27.2201C13.233 27.7143 13.1684 28.262 13.2645 28.7931C13.3606 29.3243 13.6129 29.8147 13.9892 30.2016C14.3655 30.5885 14.8487 30.8544 15.3769 30.9652C15.9052 31.0761 16.4545 31.0268 16.9546 30.8237C17.4546 30.6206 17.8828 30.273 18.1842 29.8253C18.4857 29.3776 18.6467 28.8501 18.6467 28.3103C18.6556 27.6013 18.383 26.9176 17.8886 26.4093C17.3943 25.9009 16.7185 25.6094 16.0094 25.5986Z" fill="url(#paint0_linear_85_66689)"/>
<path d="M16 16.1095C15.9005 16.1095 15.8052 16.07 15.7348 15.9997C15.6645 15.9293 15.625 15.834 15.625 15.7345V0.5C15.625 0.400544 15.6645 0.305161 15.7348 0.234835C15.8052 0.164509 15.9005 0.125 16 0.125C16.0995 0.125 16.1948 0.164509 16.2652 0.234835C16.3355 0.305161 16.375 0.400544 16.375 0.5V15.7345C16.375 15.834 16.3355 15.9293 16.2652 15.9997C16.1948 16.07 16.0995 16.1095 16 16.1095Z" fill="url(#paint1_linear_85_66689)"/>
<path d="M27.4549 28.2319C26.7874 26.0325 25.6556 24.002 24.136 22.2776C22.6165 20.5531 20.7445 19.1749 18.6467 18.2359C18.4122 18.1249 18.2141 17.9494 18.0758 17.7299C17.9375 17.5104 17.8646 17.256 17.8657 16.9966V16.9466C17.8687 16.53 17.7065 16.1293 17.4147 15.832C17.1229 15.5347 16.7252 15.3651 16.3087 15.3604H15.6917C15.2751 15.3651 14.8774 15.5347 14.5856 15.832C14.2938 16.1293 14.1317 16.53 14.1347 16.9466V16.9966C14.1358 17.256 14.0629 17.5104 13.9246 17.7299C13.7862 17.9494 13.5882 18.1249 13.3537 18.2359C11.2558 19.1748 9.3839 20.553 7.86435 22.2774C6.3448 24.0019 5.21301 26.0323 4.54543 28.2316C4.50122 28.372 4.48907 28.5205 4.50988 28.6663C4.5307 28.812 4.58394 28.9512 4.66568 29.0736C4.74491 29.1942 4.8502 29.2954 4.97378 29.3698C5.09736 29.4442 5.23607 29.49 5.37968 29.5036C8.90468 29.8351 12.4547 30.0009 16.0047 30.0009C19.5547 30.0009 23.1002 29.8351 26.6214 29.5036C26.765 29.49 26.9038 29.4442 27.0273 29.3698C27.1509 29.2954 27.2562 29.1942 27.3354 29.0736C27.4171 28.9512 27.4702 28.812 27.4908 28.6663C27.5115 28.5206 27.4993 28.3722 27.4549 28.2319Z" fill="url(#paint2_linear_85_66689)"/>
<defs>
<linearGradient id="paint0_linear_85_66689" x1="12.1117" y1="26.0292" x2="16.3654" y2="33.7698" gradientUnits="userSpaceOnUse">
<stop stop-color="#A58038"/>
<stop offset="0.5" stop-color="#FFCB7B"/>
<stop offset="1" stop-color="#A58038"/>
</linearGradient>
<linearGradient id="paint1_linear_85_66689" x1="15.586" y1="2.85172" x2="17.5578" y2="3.02007" gradientUnits="userSpaceOnUse">
<stop stop-color="#A58038"/>
<stop offset="0.5" stop-color="#FFCB7B"/>
<stop offset="1" stop-color="#A58038"/>
</linearGradient>
<linearGradient id="paint2_linear_85_66689" x1="3.30433" y1="17.8578" x2="9.94497" y2="36.8417" gradientUnits="userSpaceOnUse">
<stop stop-color="#A58038"/>
<stop offset="0.5" stop-color="#FFCB7B"/>
<stop offset="1" stop-color="#A58038"/>
</linearGradient>
</defs>
</svg>
