<svg width="32" height="32" viewBox="0 0 32 32" fill="none" xmlns="http://www.w3.org/2000/svg">
<path d="M7.92773 19.5244V13.4114C7.92773 12.9702 7.99097 12.54 8.10938 12.1294H3.9873C3.31885 12.1294 2.71265 12.4014 2.27368 12.8403C1.83472 13.2793 1.5625 13.8857 1.5625 14.554V19.4182C1.5625 20.0103 1.77856 20.5554 2.13647 20.9795C2.32251 21.2002 2.54761 21.3872 2.80103 21.5303V28.6003C2.80103 29.1172 3.21997 29.5361 3.73657 29.5361H9.48413V23.0002C8.50146 22.113 7.92773 20.8491 7.92773 19.5244Z" fill="url(#paint0_linear_85_66670)"/>
<path d="M6.61572 11.0227C8.63696 11.0227 10.2813 9.37842 10.2813 7.35718C10.2813 5.33594 8.63696 3.69165 6.61572 3.69165C4.59448 3.69165 2.9502 5.33594 2.9502 7.35718C2.9502 9.37842 4.59448 11.0227 6.61572 11.0227Z" fill="url(#paint1_linear_85_66670)"/>
<path d="M19.2148 10.6042H12.6057C11.8323 10.6042 11.1304 10.9194 10.6221 11.4275C10.1138 11.9358 9.79883 12.6377 9.79883 13.4114V19.5244C9.79883 20.21 10.0488 20.8413 10.4626 21.3318C10.708 21.6226 11.0117 21.863 11.3552 22.0349V31.0642C11.3552 31.5811 11.7742 32 12.291 32H19.5298C20.0466 32 20.4656 31.5811 20.4656 31.0642V22.0349C20.8091 21.863 21.1128 21.6226 21.3579 21.3318C21.772 20.8413 22.022 20.2102 22.022 19.5244V13.4114C22.022 12.6377 21.707 11.9358 21.1987 11.4277C20.6904 10.9194 19.9885 10.6042 19.2148 10.6042Z" fill="url(#paint2_linear_85_66670)"/>
<path d="M15.9094 8.73291C18.3171 8.73291 20.2759 6.77417 20.2759 4.36646C20.2759 1.95874 18.3171 0 15.9094 0C13.5017 0 11.543 1.95874 11.543 4.36646C11.543 6.77417 13.5017 8.73291 15.9094 8.73291Z" fill="url(#paint3_linear_85_66670)"/>
<path d="M29.6729 12.8403C29.2339 12.4014 28.6277 12.1294 27.9592 12.1294H23.7117C23.8298 12.54 23.8933 12.9702 23.8933 13.4114V19.5244C23.8933 20.8489 23.3196 22.113 22.3369 23.0002V29.5293C22.3738 29.5337 22.4116 29.5361 22.45 29.5361H28.2097C28.7266 29.5361 29.1455 29.1172 29.1455 28.6003V21.5303C29.3987 21.3875 29.6238 21.2002 29.8101 20.9795C30.168 20.5554 30.384 20.0103 30.384 19.4182V14.554C30.384 13.8857 30.1118 13.2793 29.6729 12.8403Z" fill="url(#paint4_linear_85_66670)"/>
<path d="M25.3286 11.0227C27.3499 11.0227 28.9941 9.37842 28.9941 7.35718C28.9941 5.33594 27.3499 3.69165 25.3286 3.69165C23.3076 3.69165 21.6631 5.33594 21.6631 7.35718C21.6631 9.37842 23.3076 11.0227 25.3286 11.0227Z" fill="url(#paint5_linear_85_66670)"/>
<defs>
<linearGradient id="paint0_linear_85_66670" x1="1.1507" y1="15.0987" x2="13.595" y2="25.404" gradientUnits="userSpaceOnUse">
<stop stop-color="#A58038"/>
<stop offset="0.5" stop-color="#FFCB7B"/>
<stop offset="1" stop-color="#A58038"/>
</linearGradient>
<linearGradient id="paint1_linear_85_66670" x1="2.5691" y1="4.94222" x2="7.07232" y2="13.1366" gradientUnits="userSpaceOnUse">
<stop stop-color="#A58038"/>
<stop offset="0.5" stop-color="#FFCB7B"/>
<stop offset="1" stop-color="#A58038"/>
</linearGradient>
<linearGradient id="paint2_linear_85_66670" x1="9.16342" y1="14.254" x2="24.7207" y2="30.4266" gradientUnits="userSpaceOnUse">
<stop stop-color="#A58038"/>
<stop offset="0.5" stop-color="#FFCB7B"/>
<stop offset="1" stop-color="#A58038"/>
</linearGradient>
<linearGradient id="paint3_linear_85_66670" x1="11.089" y1="1.48971" x2="16.4533" y2="11.251" gradientUnits="userSpaceOnUse">
<stop stop-color="#A58038"/>
<stop offset="0.5" stop-color="#FFCB7B"/>
<stop offset="1" stop-color="#A58038"/>
</linearGradient>
<linearGradient id="paint4_linear_85_66670" x1="21.9186" y1="15.0987" x2="34.3979" y2="25.5967" gradientUnits="userSpaceOnUse">
<stop stop-color="#A58038"/>
<stop offset="0.5" stop-color="#FFCB7B"/>
<stop offset="1" stop-color="#A58038"/>
</linearGradient>
<linearGradient id="paint5_linear_85_66670" x1="21.282" y1="4.94222" x2="25.7852" y2="13.1366" gradientUnits="userSpaceOnUse">
<stop stop-color="#A58038"/>
<stop offset="0.5" stop-color="#FFCB7B"/>
<stop offset="1" stop-color="#A58038"/>
</linearGradient>
</defs>
</svg>
