<svg width="32" height="32" viewBox="0 0 32 32" fill="none" xmlns="http://www.w3.org/2000/svg">
<g clip-path="url(#clip0_85_66681)">
<path d="M16.8656 10.1208H15.4424V11.9753H16.8656C17.3769 11.9753 17.7928 11.5594 17.7928 11.0481C17.7928 10.5368 17.3769 10.1208 16.8656 10.1208Z" fill="url(#paint0_linear_85_66681)"/>
<path d="M16.0002 0C9.26854 0 3.79199 5.47655 3.79199 12.2082C3.79199 15.2752 5.75134 19.4383 9.61558 24.5818C12.4373 28.3375 15.2129 31.193 15.3297 31.3127L16.0002 32.0001L16.6707 31.3127C16.7874 31.193 19.5631 28.3376 22.3848 24.5818C26.249 19.4383 28.2084 15.2752 28.2084 12.2082C28.2084 5.47655 22.7318 0 16.0002 0ZM16.0002 20.336C11.5185 20.336 7.8724 16.6898 7.8724 12.2081C7.8724 7.72649 11.5185 4.08034 16.0002 4.08034C20.4818 4.08034 24.128 7.72648 24.128 12.2082C24.128 16.6899 20.4819 20.336 16.0002 20.336Z" fill="url(#paint1_linear_85_66681)"/>
<path d="M15.9997 5.95361C12.5509 5.95361 9.74512 8.75945 9.74512 12.2082C9.74512 15.657 12.551 18.4629 15.9997 18.4629C19.4485 18.4629 22.2543 15.657 22.2543 12.2082C22.2543 8.75938 19.4486 5.95361 15.9997 5.95361ZM16.8656 13.8486H15.4423V16.2725H13.5691V8.24782H16.8656C18.4097 8.24782 19.666 9.50403 19.666 11.0482C19.666 12.5924 18.4097 13.8486 16.8656 13.8486Z" fill="url(#paint2_linear_85_66681)"/>
</g>
<defs>
<linearGradient id="paint0_linear_85_66681" x1="15.3202" y1="10.4372" x2="16.3052" y2="12.709" gradientUnits="userSpaceOnUse">
<stop stop-color="#A58038"/>
<stop offset="0.5" stop-color="#FFCB7B"/>
<stop offset="1" stop-color="#A58038"/>
</linearGradient>
<linearGradient id="paint1_linear_85_66681" x1="2.52272" y1="5.45874" x2="24.6081" y2="36.1226" gradientUnits="userSpaceOnUse">
<stop stop-color="#A58038"/>
<stop offset="0.5" stop-color="#FFCB7B"/>
<stop offset="1" stop-color="#A58038"/>
</linearGradient>
<linearGradient id="paint2_linear_85_66681" x1="9.09483" y1="8.08751" x2="16.7789" y2="22.0698" gradientUnits="userSpaceOnUse">
<stop stop-color="#A58038"/>
<stop offset="0.5" stop-color="#FFCB7B"/>
<stop offset="1" stop-color="#A58038"/>
</linearGradient>
<clipPath id="clip0_85_66681">
<rect width="32" height="32" fill="white"/>
</clipPath>
</defs>
</svg>
